<svg xmlns="http://www.w3.org/2000/svg" xmlns:xlink="http://www.w3.org/1999/xlink" version="1.1" x="0px" y="0px" viewBox="0 0 100 100" enable-background="new 0 0 100 100" xml:space="preserve"><g><polygon points="92.5,45 92.5,42.5 92.5,40 92.5,37.5 90,37.5 90,35 90,32.5 90,30 87.5,30 87.5,27.5 87.5,25 85,25 85,22.5    82.5,22.5 82.5,20 80,20 80,17.5 77.5,17.5 77.5,15 75,15 75,12.5 72.5,12.5 70,12.5 70,10 67.5,10 65,10 65,7.5 62.5,7.5 60,7.5    57.5,7.5 57.5,5 55,5 52.5,5 50,5 47.5,5 45,5 42.5,5 42.5,7.5 40,7.5 37.5,7.5 37.5,10 37.5,12.5 40,12.5 42.5,12.5 42.5,15    45,15 47.5,15 47.5,17.5 50,17.5 50,20 52.5,20 52.5,22.5 55,22.5 55,25 57.5,25 57.5,27.5 57.5,30 60,30 60,32.5 60,35 60,37.5    62.5,37.5 62.5,40 62.5,42.5 62.5,45 65,45 65,47.5 65,50 65,52.5 65,55 62.5,55 62.5,57.5 62.5,60 62.5,62.5 60,62.5 60,65    60,67.5 60,70 57.5,70 57.5,72.5 57.5,75 55,75 55,77.5 52.5,77.5 52.5,80 50,80 50,82.5 47.5,82.5 47.5,85 45,85 42.5,85    42.5,87.5 40,87.5 37.5,87.5 37.5,90 37.5,92.5 40,92.5 42.5,92.5 42.5,95 45,95 47.5,95 50,95 52.5,95 55,95 57.5,95 57.5,92.5    60,92.5 62.5,92.5 65,92.5 65,90 67.5,90 70,90 70,87.5 72.5,87.5 75,87.5 75,85 77.5,85 77.5,82.5 80,82.5 80,80 82.5,80    82.5,77.5 85,77.5 85,75 87.5,75 87.5,72.5 87.5,70 90,70 90,67.5 90,65 90,62.5 92.5,62.5 92.5,60 92.5,57.5 92.5,55 95,55    95,52.5 95,50 95,47.5 95,45  "/></g></svg>
